<?xml version="1.0" encoding="UTF-8" standalone="no"?>
<!-- Created with Inkscape (http://www.inkscape.org/) -->

<svg
   width="49.466934mm"
   height="41.404202mm"
   viewBox="0 0 49.466934 41.404202"
   version="1.1"
   id="svg1"
   xmlns="http://www.w3.org/2000/svg"
   xmlns:svg="http://www.w3.org/2000/svg">
  <defs
     id="defs1">
    <rect
       x="301.88977"
       y="420.94489"
       width="250.86613"
       height="195.59055"
       id="rect3" />
  </defs>
  <g
     id="layer1"
     transform="translate(-75.77169,-96.616855)">
    <path
       style="fill:#ffffff;fill-opacity:1;stroke:#036071;stroke-width:2.38237;stroke-dasharray:none;stroke-opacity:1"
       d="m 97.825247,136.69448 c -6.445609,-7.57406 -14.301891,-6.06372 -19.597169,-6.20965 -0.07535,-7.55604 -1.399938,-24.1341 -1.253692,-31.693481 0.834395,-1.714351 22.832666,-1.974907 22.896359,5.887081 0.06599,8.14515 -0.197958,32.09672 -0.197958,32.09672 z m -4.275043,-26.8661"
       id="path3" />
    <path
       style="fill:#ffffff;fill-opacity:1;stroke:#036071;stroke-width:2.38237;stroke-dasharray:none;stroke-opacity:1"
       d="m 103.18507,136.69664 c 6.44561,-7.57406 14.30189,-6.06372 19.59716,-6.20964 0.0754,-7.55604 1.39995,-24.13411 1.2537,-31.693485 -0.83439,-1.714352 -22.83266,-1.974907 -22.89636,5.887085 -0.066,8.14514 0.19796,32.09671 0.19796,32.09671 z m 4.27504,-26.86609"
       id="path3-1" />
    <rect
       style="fill:#ffffff;fill-opacity:1;stroke:#036071;stroke-width:2.63181;stroke-dasharray:none;stroke-opacity:0"
       id="rect6"
       width="4.181633"
       height="31.614841"
       x="98.402718"
       y="103.93164" />
  </g>
  <text
     xml:space="preserve"
     id="text3"
     style="font-size:64px;writing-mode:lr-tb;direction:ltr;white-space:pre;shape-inside:url(#rect3);fill:#000000;stroke:#000000;stroke-opacity:1"
     transform="matrix(0.26458333,0,0,0.26458333,-75.904273,-100.26288)"><tspan
       x="301.89062"
       y="477.57031"
       id="tspan2"><tspan
         style="font-weight:bold;font-family:'DejaVu Serif';-inkscape-font-specification:'DejaVu Serif Bold';fill:#a82013"
         id="tspan1">CUT</tspan></tspan></text>
</svg>
